<?xml version="1.0" encoding="UTF-8" standalone="no"?>
<!-- Created with Inkscape (http://www.inkscape.org/) -->

<svg
   xmlns:dc="http://purl.org/dc/elements/1.1/"
   xmlns:cc="http://creativecommons.org/ns#"
   xmlns:rdf="http://www.w3.org/1999/02/22-rdf-syntax-ns#"
   xmlns:svg="http://www.w3.org/2000/svg"
   xmlns="http://www.w3.org/2000/svg"
   xmlns:sodipodi="http://sodipodi.sourceforge.net/DTD/sodipodi-0.dtd"
   xmlns:inkscape="http://www.inkscape.org/namespaces/inkscape"
   id="svg2"
   version="1.1"
   inkscape:version="0.91 r13725"
   width="400"
   height="400"
   viewBox="0 0 400.00001 400"
   sodipodi:docname="initials.svg"
   inkscape:export-filename="E:\Dropbox\IDE\xampp\htdocs\jorenerene\assets\img\bitbucket.png"
   inkscape:export-xdpi="60"
   inkscape:export-ydpi="60">
  <metadata
     id="metadata8">
    <rdf:RDF>
      <cc:Work
         rdf:about="">
        <dc:format>image/svg+xml</dc:format>
        <dc:type
           rdf:resource="http://purl.org/dc/dcmitype/StillImage" />
        <dc:title></dc:title>
      </cc:Work>
    </rdf:RDF>
  </metadata>
  <defs
     id="defs6" />
  <sodipodi:namedview
     pagecolor="#ffffff"
     bordercolor="#666666"
     borderopacity="1"
     objecttolerance="10"
     gridtolerance="10"
     guidetolerance="10"
     inkscape:pageopacity="0"
     inkscape:pageshadow="2"
     inkscape:window-width="1366"
     inkscape:window-height="705"
     id="namedview4"
     showgrid="false"
     inkscape:zoom="1"
     inkscape:cx="126.26627"
     inkscape:cy="172.37775"
     inkscape:window-x="-8"
     inkscape:window-y="-8"
     inkscape:window-maximized="1"
     inkscape:current-layer="svg2"
     fit-margin-top="0"
     fit-margin-left="0"
     fit-margin-right="0"
     fit-margin-bottom="0" />
  <path
     style="fill:#000000"
     d="m 79.336545,325.32275 c -10.112813,-6.9336 -11.41614,-6.6178 32.239035,-7.81138 31.46749,-0.86036 36.93149,-2.83737 53.43749,-19.33496 18.16886,-18.15961 18.40803,-19.08952 20.25422,-78.75 2.50157,-80.83993 12.19425,-89.26068 12.19425,-10.59406 0,64.90584 -4.47634,80.26088 -30.48008,104.55481 -11.21553,10.47807 -22.27886,14.18186 -46.94071,15.71486 -17.74669,1.10313 -36.063588,-0.59754 -40.704205,-3.77927 z M 237.73645,185.63356 c 1.68728,-42.00862 4.87495,-59.54778 13.50952,-74.33222 12.45541,-21.326599 36.42544,-37.494493 59.86239,-40.37744 20.19925,-2.484683 20.66668,8.477191 0.53814,12.621098 -46.3243,9.53691 -57.93496,30.249852 -57.93496,103.353692 0,45.71625 -1.35412,53.71683 -9.09173,53.71683 -7.90283,0 -8.80295,-7.18983 -6.88336,-54.98196 z"
     id="path4156"
     inkscape:connector-curvature="0" />
</svg>
